<mxfile host="app.diagrams.net" agent="Mozilla/5.0 (Macintosh; Intel Mac OS X 10_15_7) AppleWebKit/605.1.15 (KHTML, like Gecko) Version/26.0 Safari/605.1.15" version="28.2.3">
  <diagram name="Page-1" id="irMi6EOYxpXYWQNIVK3N">
    <mxGraphModel dx="824" dy="648" grid="0" gridSize="10" guides="1" tooltips="1" connect="1" arrows="1" fold="1" page="1" pageScale="1" pageWidth="827" pageHeight="1169" math="0" shadow="0">
      <root>
        <mxCell id="0" />
        <mxCell id="1" parent="0" />
        <mxCell id="MrN5kUkZAUSpkwFro3fQ-1" value="UTILISATEUR" style="rounded=1;arcSize=10;whiteSpace=wrap;html=1;align=center;fillColor=#ffe6cc;strokeColor=#d79b00;" vertex="1" parent="1">
          <mxGeometry x="390" y="380" width="100" height="40" as="geometry" />
        </mxCell>
        <mxCell id="MrN5kUkZAUSpkwFro3fQ-2" value="ROLE" style="rounded=1;arcSize=10;whiteSpace=wrap;html=1;align=center;fillColor=#ffe6cc;strokeColor=#d79b00;" vertex="1" parent="1">
          <mxGeometry x="280" y="180" width="100" height="40" as="geometry" />
        </mxCell>
        <mxCell id="MrN5kUkZAUSpkwFro3fQ-3" value="PROFIL" style="rounded=1;arcSize=10;whiteSpace=wrap;html=1;align=center;fillColor=#ffe6cc;strokeColor=#d79b00;" vertex="1" parent="1">
          <mxGeometry x="200" y="520" width="100" height="40" as="geometry" />
        </mxCell>
        <mxCell id="MrN5kUkZAUSpkwFro3fQ-4" value="APPLICATION" style="rounded=1;arcSize=10;whiteSpace=wrap;html=1;align=center;fillColor=#ffe6cc;strokeColor=#d79b00;" vertex="1" parent="1">
          <mxGeometry x="510" y="660" width="100" height="40" as="geometry" />
        </mxCell>
        <mxCell id="MrN5kUkZAUSpkwFro3fQ-5" value="CATEGORIE" style="rounded=1;arcSize=10;whiteSpace=wrap;html=1;align=center;fillColor=#ffe6cc;strokeColor=#d79b00;" vertex="1" parent="1">
          <mxGeometry x="510" y="917" width="100" height="40" as="geometry" />
        </mxCell>
        <mxCell id="MrN5kUkZAUSpkwFro3fQ-6" value="ACHETER" style="shape=rhombus;perimeter=rhombusPerimeter;whiteSpace=wrap;html=1;align=center;fillColor=#dae8fc;strokeColor=#6c8ebf;" vertex="1" parent="1">
          <mxGeometry x="500" y="510" width="120" height="60" as="geometry" />
        </mxCell>
        <mxCell id="MrN5kUkZAUSpkwFro3fQ-7" value="" style="endArrow=none;html=1;rounded=1;fontSize=12;startSize=8;endSize=8;curved=0;" edge="1" parent="1" source="MrN5kUkZAUSpkwFro3fQ-6" target="MrN5kUkZAUSpkwFro3fQ-4">
          <mxGeometry relative="1" as="geometry">
            <mxPoint x="510" y="660" as="sourcePoint" />
            <mxPoint x="670" y="660" as="targetPoint" />
            <Array as="points" />
          </mxGeometry>
        </mxCell>
        <mxCell id="MrN5kUkZAUSpkwFro3fQ-8" value="0,N" style="resizable=0;whiteSpace=wrap;align=right;verticalAlign=bottom;fontFamily=Courier New;fontStyle=1;labelBorderColor=none;html=1;" connectable="0" vertex="1" parent="MrN5kUkZAUSpkwFro3fQ-7">
          <mxGeometry x="1" relative="1" as="geometry">
            <mxPoint x="24" y="-4" as="offset" />
          </mxGeometry>
        </mxCell>
        <mxCell id="MrN5kUkZAUSpkwFro3fQ-9" value="" style="endArrow=none;html=1;rounded=1;fontSize=12;startSize=8;endSize=8;curved=0;" edge="1" parent="1" source="MrN5kUkZAUSpkwFro3fQ-6" target="MrN5kUkZAUSpkwFro3fQ-1">
          <mxGeometry relative="1" as="geometry">
            <mxPoint x="490" y="470" as="sourcePoint" />
            <mxPoint x="650" y="470" as="targetPoint" />
            <Array as="points">
              <mxPoint x="440" y="540" />
            </Array>
          </mxGeometry>
        </mxCell>
        <mxCell id="MrN5kUkZAUSpkwFro3fQ-10" value="0,N" style="resizable=0;whiteSpace=wrap;align=right;verticalAlign=bottom;fontFamily=Courier New;fontStyle=1;labelBorderColor=none;html=1;" connectable="0" vertex="1" parent="MrN5kUkZAUSpkwFro3fQ-9">
          <mxGeometry x="1" relative="1" as="geometry">
            <mxPoint x="30" y="20" as="offset" />
          </mxGeometry>
        </mxCell>
        <mxCell id="MrN5kUkZAUSpkwFro3fQ-11" value="PROMOUVOIR" style="shape=rhombus;perimeter=rhombusPerimeter;whiteSpace=wrap;html=1;align=center;fillColor=#dae8fc;strokeColor=#6c8ebf;" vertex="1" parent="1">
          <mxGeometry x="270" y="270" width="120" height="60" as="geometry" />
        </mxCell>
        <mxCell id="MrN5kUkZAUSpkwFro3fQ-12" value="REPRESENTER" style="shape=rhombus;perimeter=rhombusPerimeter;whiteSpace=wrap;html=1;align=center;fillColor=#dae8fc;strokeColor=#6c8ebf;" vertex="1" parent="1">
          <mxGeometry x="190" y="370" width="120" height="60" as="geometry" />
        </mxCell>
        <mxCell id="MrN5kUkZAUSpkwFro3fQ-13" value="" style="endArrow=none;html=1;rounded=1;fontSize=12;startSize=8;endSize=8;curved=0;" edge="1" parent="1" source="MrN5kUkZAUSpkwFro3fQ-11" target="MrN5kUkZAUSpkwFro3fQ-1">
          <mxGeometry relative="1" as="geometry">
            <mxPoint x="460" y="350" as="sourcePoint" />
            <mxPoint x="620" y="350" as="targetPoint" />
            <Array as="points">
              <mxPoint x="440" y="300" />
            </Array>
          </mxGeometry>
        </mxCell>
        <mxCell id="MrN5kUkZAUSpkwFro3fQ-14" value="0,N" style="resizable=0;whiteSpace=wrap;align=right;verticalAlign=bottom;fontFamily=Courier New;fontStyle=1;labelBorderColor=none;html=1;" connectable="0" vertex="1" parent="MrN5kUkZAUSpkwFro3fQ-13">
          <mxGeometry x="1" relative="1" as="geometry">
            <mxPoint y="-10" as="offset" />
          </mxGeometry>
        </mxCell>
        <mxCell id="MrN5kUkZAUSpkwFro3fQ-15" value="" style="endArrow=none;html=1;rounded=0;fontSize=12;startSize=8;endSize=8;curved=1;" edge="1" parent="1" source="MrN5kUkZAUSpkwFro3fQ-11" target="MrN5kUkZAUSpkwFro3fQ-2">
          <mxGeometry relative="1" as="geometry">
            <mxPoint x="460" y="240" as="sourcePoint" />
            <mxPoint x="620" y="240" as="targetPoint" />
          </mxGeometry>
        </mxCell>
        <mxCell id="MrN5kUkZAUSpkwFro3fQ-16" value="1,1" style="resizable=0;whiteSpace=wrap;align=right;verticalAlign=bottom;fontFamily=Courier New;fontStyle=1;labelBorderColor=none;html=1;" connectable="0" vertex="1" parent="MrN5kUkZAUSpkwFro3fQ-15">
          <mxGeometry x="1" relative="1" as="geometry">
            <mxPoint x="-4" y="19" as="offset" />
          </mxGeometry>
        </mxCell>
        <mxCell id="MrN5kUkZAUSpkwFro3fQ-17" value="" style="endArrow=none;html=1;rounded=0;fontSize=12;startSize=8;endSize=8;curved=1;" edge="1" parent="1" source="MrN5kUkZAUSpkwFro3fQ-12" target="MrN5kUkZAUSpkwFro3fQ-1">
          <mxGeometry relative="1" as="geometry">
            <mxPoint x="380" y="230" as="sourcePoint" />
            <mxPoint x="540" y="230" as="targetPoint" />
          </mxGeometry>
        </mxCell>
        <mxCell id="MrN5kUkZAUSpkwFro3fQ-18" value="1,1" style="resizable=0;whiteSpace=wrap;align=right;verticalAlign=bottom;fontFamily=Courier New;fontStyle=1;labelBorderColor=none;html=1;" connectable="0" vertex="1" parent="MrN5kUkZAUSpkwFro3fQ-17">
          <mxGeometry x="1" relative="1" as="geometry">
            <mxPoint x="-4" y="-5" as="offset" />
          </mxGeometry>
        </mxCell>
        <mxCell id="MrN5kUkZAUSpkwFro3fQ-19" value="" style="endArrow=none;html=1;rounded=0;fontSize=12;startSize=8;endSize=8;curved=1;" edge="1" parent="1" source="MrN5kUkZAUSpkwFro3fQ-12" target="MrN5kUkZAUSpkwFro3fQ-3">
          <mxGeometry relative="1" as="geometry">
            <mxPoint x="340" y="240" as="sourcePoint" />
            <mxPoint x="500" y="240" as="targetPoint" />
          </mxGeometry>
        </mxCell>
        <mxCell id="MrN5kUkZAUSpkwFro3fQ-20" value="0,1" style="resizable=0;whiteSpace=wrap;align=right;verticalAlign=bottom;fontFamily=Courier New;fontStyle=1;labelBorderColor=none;html=1;" connectable="0" vertex="1" parent="MrN5kUkZAUSpkwFro3fQ-19">
          <mxGeometry x="1" relative="1" as="geometry">
            <mxPoint x="-2" y="-2" as="offset" />
          </mxGeometry>
        </mxCell>
        <mxCell id="MrN5kUkZAUSpkwFro3fQ-21" value="COMMENTER" style="shape=rhombus;perimeter=rhombusPerimeter;whiteSpace=wrap;html=1;align=center;fillColor=#dae8fc;strokeColor=#6c8ebf;" vertex="1" parent="1">
          <mxGeometry x="190" y="650" width="120" height="60" as="geometry" />
        </mxCell>
        <mxCell id="MrN5kUkZAUSpkwFro3fQ-22" value="APPARTENIR" style="shape=rhombus;perimeter=rhombusPerimeter;whiteSpace=wrap;html=1;align=center;fillColor=#dae8fc;strokeColor=#6c8ebf;" vertex="1" parent="1">
          <mxGeometry x="500" y="813" width="120" height="60" as="geometry" />
        </mxCell>
        <mxCell id="MrN5kUkZAUSpkwFro3fQ-23" value="" style="endArrow=none;html=1;rounded=0;fontSize=12;startSize=8;endSize=8;curved=1;" edge="1" parent="1" source="MrN5kUkZAUSpkwFro3fQ-21" target="MrN5kUkZAUSpkwFro3fQ-4">
          <mxGeometry relative="1" as="geometry">
            <mxPoint x="300" y="610" as="sourcePoint" />
            <mxPoint x="460" y="610" as="targetPoint" />
          </mxGeometry>
        </mxCell>
        <mxCell id="MrN5kUkZAUSpkwFro3fQ-24" value="0,N" style="resizable=0;whiteSpace=wrap;align=right;verticalAlign=bottom;fontFamily=Courier New;fontStyle=1;labelBorderColor=none;html=1;" connectable="0" vertex="1" parent="MrN5kUkZAUSpkwFro3fQ-23">
          <mxGeometry x="1" relative="1" as="geometry">
            <mxPoint x="-2" y="-3" as="offset" />
          </mxGeometry>
        </mxCell>
        <mxCell id="MrN5kUkZAUSpkwFro3fQ-25" value="" style="endArrow=none;html=1;rounded=1;fontSize=12;startSize=8;endSize=8;curved=0;" edge="1" parent="1" source="MrN5kUkZAUSpkwFro3fQ-22" target="MrN5kUkZAUSpkwFro3fQ-4">
          <mxGeometry relative="1" as="geometry">
            <mxPoint x="320" y="690" as="sourcePoint" />
            <mxPoint x="400" y="690" as="targetPoint" />
            <Array as="points" />
          </mxGeometry>
        </mxCell>
        <mxCell id="MrN5kUkZAUSpkwFro3fQ-26" value="0,N" style="resizable=0;whiteSpace=wrap;align=right;verticalAlign=bottom;fontFamily=Courier New;fontStyle=1;labelBorderColor=none;html=1;" connectable="0" vertex="1" parent="MrN5kUkZAUSpkwFro3fQ-25">
          <mxGeometry x="1" relative="1" as="geometry">
            <mxPoint x="-10" y="20" as="offset" />
          </mxGeometry>
        </mxCell>
        <mxCell id="MrN5kUkZAUSpkwFro3fQ-27" value="" style="endArrow=none;html=1;rounded=0;fontSize=12;startSize=8;endSize=8;curved=1;" edge="1" parent="1" source="MrN5kUkZAUSpkwFro3fQ-21" target="MrN5kUkZAUSpkwFro3fQ-3">
          <mxGeometry relative="1" as="geometry">
            <mxPoint x="260" y="610" as="sourcePoint" />
            <mxPoint x="420" y="610" as="targetPoint" />
          </mxGeometry>
        </mxCell>
        <mxCell id="MrN5kUkZAUSpkwFro3fQ-28" value="0,N" style="resizable=0;whiteSpace=wrap;align=right;verticalAlign=bottom;fontFamily=Courier New;fontStyle=1;labelBorderColor=none;html=1;" connectable="0" vertex="1" parent="MrN5kUkZAUSpkwFro3fQ-27">
          <mxGeometry x="1" relative="1" as="geometry">
            <mxPoint x="-2" y="20" as="offset" />
          </mxGeometry>
        </mxCell>
        <mxCell id="MrN5kUkZAUSpkwFro3fQ-29" value="Date_Achat" style="ellipse;whiteSpace=wrap;html=1;align=center;fontStyle=4;fillColor=#d5e8d4;strokeColor=#82b366;" vertex="1" parent="1">
          <mxGeometry x="640" y="520" width="100" height="40" as="geometry" />
        </mxCell>
        <mxCell id="MrN5kUkZAUSpkwFro3fQ-30" value="Id" style="ellipse;whiteSpace=wrap;html=1;align=center;fontStyle=4;fillColor=#d5e8d4;strokeColor=#82b366;" vertex="1" parent="1">
          <mxGeometry x="635" y="660" width="40" height="40" as="geometry" />
        </mxCell>
        <mxCell id="MrN5kUkZAUSpkwFro3fQ-31" value="Numero" style="ellipse;whiteSpace=wrap;html=1;align=center;fontStyle=4;fillColor=#d5e8d4;strokeColor=#82b366;" vertex="1" parent="1">
          <mxGeometry x="405" y="948" width="65" height="40" as="geometry" />
        </mxCell>
        <mxCell id="MrN5kUkZAUSpkwFro3fQ-32" value="Id" style="ellipse;whiteSpace=wrap;html=1;align=center;fontStyle=4;fillColor=#d5e8d4;strokeColor=#82b366;" vertex="1" parent="1">
          <mxGeometry x="470" y="290" width="40" height="40" as="geometry" />
        </mxCell>
        <mxCell id="MrN5kUkZAUSpkwFro3fQ-33" value="Numero" style="ellipse;whiteSpace=wrap;html=1;align=center;fontStyle=4;fillColor=#d5e8d4;strokeColor=#82b366;" vertex="1" parent="1">
          <mxGeometry x="250" y="120" width="70" height="40" as="geometry" />
        </mxCell>
        <mxCell id="MrN5kUkZAUSpkwFro3fQ-34" value="Id" style="ellipse;whiteSpace=wrap;html=1;align=center;fontStyle=4;fillColor=#d5e8d4;strokeColor=#82b366;" vertex="1" parent="1">
          <mxGeometry x="330" y="520" width="40" height="40" as="geometry" />
        </mxCell>
        <mxCell id="MrN5kUkZAUSpkwFro3fQ-35" value="" style="endArrow=none;html=1;rounded=0;fontSize=12;startSize=8;endSize=8;curved=1;" edge="1" parent="1" source="MrN5kUkZAUSpkwFro3fQ-29" target="MrN5kUkZAUSpkwFro3fQ-6">
          <mxGeometry relative="1" as="geometry">
            <mxPoint x="590" y="480" as="sourcePoint" />
            <mxPoint x="750" y="480" as="targetPoint" />
          </mxGeometry>
        </mxCell>
        <mxCell id="MrN5kUkZAUSpkwFro3fQ-36" value="Titre" style="ellipse;whiteSpace=wrap;html=1;align=center;fillColor=#d5e8d4;strokeColor=#82b366;" vertex="1" parent="1">
          <mxGeometry x="270" y="805" width="50" height="40" as="geometry" />
        </mxCell>
        <mxCell id="MrN5kUkZAUSpkwFro3fQ-37" value="" style="endArrow=none;html=1;rounded=0;fontSize=12;startSize=8;endSize=8;curved=1;" edge="1" parent="1" source="MrN5kUkZAUSpkwFro3fQ-36" target="MrN5kUkZAUSpkwFro3fQ-21">
          <mxGeometry relative="1" as="geometry">
            <mxPoint x="260" y="750" as="sourcePoint" />
            <mxPoint x="420" y="750" as="targetPoint" />
            <Array as="points">
              <mxPoint x="385" y="752" />
            </Array>
          </mxGeometry>
        </mxCell>
        <mxCell id="MrN5kUkZAUSpkwFro3fQ-38" value="Contenu" style="ellipse;whiteSpace=wrap;html=1;align=center;fillColor=#d5e8d4;strokeColor=#82b366;" vertex="1" parent="1">
          <mxGeometry x="192" y="807" width="70" height="40" as="geometry" />
        </mxCell>
        <mxCell id="MrN5kUkZAUSpkwFro3fQ-39" value="Note" style="ellipse;whiteSpace=wrap;html=1;align=center;fillColor=#d5e8d4;strokeColor=#82b366;" vertex="1" parent="1">
          <mxGeometry x="190" y="750" width="60" height="40" as="geometry" />
        </mxCell>
        <mxCell id="MrN5kUkZAUSpkwFro3fQ-40" value="Date_com" style="ellipse;whiteSpace=wrap;html=1;align=center;fillColor=#d5e8d4;strokeColor=#82b366;" vertex="1" parent="1">
          <mxGeometry x="260" y="740" width="70" height="40" as="geometry" />
        </mxCell>
        <mxCell id="MrN5kUkZAUSpkwFro3fQ-41" value="" style="endArrow=none;html=1;rounded=0;fontSize=12;startSize=8;endSize=8;curved=1;" edge="1" parent="1" source="MrN5kUkZAUSpkwFro3fQ-38" target="MrN5kUkZAUSpkwFro3fQ-21">
          <mxGeometry relative="1" as="geometry">
            <mxPoint x="220" y="720" as="sourcePoint" />
            <mxPoint x="380" y="720" as="targetPoint" />
            <Array as="points">
              <mxPoint x="131" y="761" />
            </Array>
          </mxGeometry>
        </mxCell>
        <mxCell id="MrN5kUkZAUSpkwFro3fQ-42" value="" style="endArrow=none;html=1;rounded=0;fontSize=12;startSize=8;endSize=8;curved=1;" edge="1" parent="1" source="MrN5kUkZAUSpkwFro3fQ-31" target="MrN5kUkZAUSpkwFro3fQ-5">
          <mxGeometry relative="1" as="geometry">
            <mxPoint x="310" y="744" as="sourcePoint" />
            <mxPoint x="360" y="708" as="targetPoint" />
          </mxGeometry>
        </mxCell>
        <mxCell id="MrN5kUkZAUSpkwFro3fQ-43" value="" style="endArrow=none;html=1;rounded=0;fontSize=12;startSize=8;endSize=8;curved=1;" edge="1" parent="1" source="MrN5kUkZAUSpkwFro3fQ-76" target="MrN5kUkZAUSpkwFro3fQ-5">
          <mxGeometry relative="1" as="geometry">
            <mxPoint x="299" y="870" as="sourcePoint" />
            <mxPoint x="354" y="870" as="targetPoint" />
          </mxGeometry>
        </mxCell>
        <mxCell id="MrN5kUkZAUSpkwFro3fQ-44" value="" style="endArrow=none;html=1;rounded=0;fontSize=12;startSize=8;endSize=8;curved=1;" edge="1" parent="1" source="MrN5kUkZAUSpkwFro3fQ-39" target="MrN5kUkZAUSpkwFro3fQ-21">
          <mxGeometry relative="1" as="geometry">
            <mxPoint x="300" y="830" as="sourcePoint" />
            <mxPoint x="460" y="830" as="targetPoint" />
          </mxGeometry>
        </mxCell>
        <mxCell id="MrN5kUkZAUSpkwFro3fQ-45" value="" style="endArrow=none;html=1;rounded=0;fontSize=12;startSize=8;endSize=8;curved=1;" edge="1" parent="1" source="MrN5kUkZAUSpkwFro3fQ-40" target="MrN5kUkZAUSpkwFro3fQ-21">
          <mxGeometry relative="1" as="geometry">
            <mxPoint x="248" y="760" as="sourcePoint" />
            <mxPoint x="263" y="716" as="targetPoint" />
          </mxGeometry>
        </mxCell>
        <mxCell id="MrN5kUkZAUSpkwFro3fQ-46" value="Nom" style="ellipse;whiteSpace=wrap;html=1;align=center;fillColor=#d5e8d4;strokeColor=#82b366;" vertex="1" parent="1">
          <mxGeometry x="690" y="660" width="50" height="40" as="geometry" />
        </mxCell>
        <mxCell id="MrN5kUkZAUSpkwFro3fQ-47" value="Date_publication" style="ellipse;whiteSpace=wrap;html=1;align=center;fillColor=#d5e8d4;strokeColor=#82b366;" vertex="1" parent="1">
          <mxGeometry x="635" y="720" width="110" height="40" as="geometry" />
        </mxCell>
        <mxCell id="MrN5kUkZAUSpkwFro3fQ-48" value="Nom" style="ellipse;whiteSpace=wrap;html=1;align=center;fillColor=#d5e8d4;strokeColor=#82b366;" vertex="1" parent="1">
          <mxGeometry x="140" y="460" width="60" height="40" as="geometry" />
        </mxCell>
        <mxCell id="MrN5kUkZAUSpkwFro3fQ-49" value="Photo" style="ellipse;whiteSpace=wrap;html=1;align=center;fillColor=#d5e8d4;strokeColor=#82b366;" vertex="1" parent="1">
          <mxGeometry x="110" y="510" width="60" height="40" as="geometry" />
        </mxCell>
        <mxCell id="MrN5kUkZAUSpkwFro3fQ-50" value="Description" style="ellipse;whiteSpace=wrap;html=1;align=center;fillColor=#d5e8d4;strokeColor=#82b366;" vertex="1" parent="1">
          <mxGeometry x="100" y="565" width="90" height="40" as="geometry" />
        </mxCell>
        <mxCell id="MrN5kUkZAUSpkwFro3fQ-51" value="Email" style="ellipse;whiteSpace=wrap;html=1;align=center;fillColor=#d5e8d4;strokeColor=#82b366;" vertex="1" parent="1">
          <mxGeometry x="610" y="330" width="60" height="40" as="geometry" />
        </mxCell>
        <mxCell id="MrN5kUkZAUSpkwFro3fQ-52" value="Date_creation" style="ellipse;whiteSpace=wrap;html=1;align=center;fillColor=#d5e8d4;strokeColor=#82b366;" vertex="1" parent="1">
          <mxGeometry x="580" y="380" width="100" height="40" as="geometry" />
        </mxCell>
        <mxCell id="MrN5kUkZAUSpkwFro3fQ-77" value="Email_valid" style="ellipse;whiteSpace=wrap;html=1;align=center;fillColor=#d5e8d4;strokeColor=#82b366;" vertex="1" parent="1">
          <mxGeometry x="495" y="415" width="100" height="40" as="geometry" />
        </mxCell>
        <mxCell id="MrN5kUkZAUSpkwFro3fQ-53" value="Mot_de_passe" style="ellipse;whiteSpace=wrap;html=1;align=center;fillColor=#d5e8d4;strokeColor=#82b366;" vertex="1" parent="1">
          <mxGeometry x="560" y="280" width="100" height="40" as="geometry" />
        </mxCell>
        <mxCell id="MrN5kUkZAUSpkwFro3fQ-54" value="Libelle" style="ellipse;whiteSpace=wrap;html=1;align=center;fillColor=#d5e8d4;strokeColor=#82b366;" vertex="1" parent="1">
          <mxGeometry x="340" y="120" width="60" height="40" as="geometry" />
        </mxCell>
        <mxCell id="MrN5kUkZAUSpkwFro3fQ-55" value="Nom" style="ellipse;whiteSpace=wrap;html=1;align=center;fillColor=#d5e8d4;strokeColor=#82b366;" vertex="1" parent="1">
          <mxGeometry x="530" y="330" width="60" height="40" as="geometry" />
        </mxCell>
        <mxCell id="MrN5kUkZAUSpkwFro3fQ-56" value="prix" style="ellipse;whiteSpace=wrap;html=1;align=center;fillColor=#d5e8d4;strokeColor=#82b366;" vertex="1" parent="1">
          <mxGeometry x="595" y="770" width="45" height="40" as="geometry" />
        </mxCell>
        <mxCell id="MrN5kUkZAUSpkwFro3fQ-57" value="Description" style="ellipse;whiteSpace=wrap;html=1;align=center;fillColor=#d5e8d4;strokeColor=#82b366;" vertex="1" parent="1">
          <mxGeometry x="685" y="770" width="80" height="40" as="geometry" />
        </mxCell>
        <mxCell id="MrN5kUkZAUSpkwFro3fQ-58" value="" style="endArrow=none;html=1;rounded=0;fontSize=12;startSize=8;endSize=8;curved=1;" edge="1" parent="1" source="MrN5kUkZAUSpkwFro3fQ-46" target="MrN5kUkZAUSpkwFro3fQ-4">
          <mxGeometry relative="1" as="geometry">
            <mxPoint x="420" y="750" as="sourcePoint" />
            <mxPoint x="580" y="750" as="targetPoint" />
            <Array as="points">
              <mxPoint x="660" y="620" />
            </Array>
          </mxGeometry>
        </mxCell>
        <mxCell id="MrN5kUkZAUSpkwFro3fQ-59" value="" style="endArrow=none;html=1;rounded=0;fontSize=12;startSize=8;endSize=8;curved=1;" edge="1" parent="1" source="MrN5kUkZAUSpkwFro3fQ-57" target="MrN5kUkZAUSpkwFro3fQ-4">
          <mxGeometry relative="1" as="geometry">
            <mxPoint x="375" y="738" as="sourcePoint" />
            <mxPoint x="418" y="710" as="targetPoint" />
            <Array as="points">
              <mxPoint x="650" y="780" />
            </Array>
          </mxGeometry>
        </mxCell>
        <mxCell id="MrN5kUkZAUSpkwFro3fQ-60" value="" style="endArrow=none;html=1;rounded=0;fontSize=12;startSize=8;endSize=8;curved=1;" edge="1" parent="1" source="MrN5kUkZAUSpkwFro3fQ-30" target="MrN5kUkZAUSpkwFro3fQ-4">
          <mxGeometry relative="1" as="geometry">
            <mxPoint x="370" y="791" as="sourcePoint" />
            <mxPoint x="434" y="710" as="targetPoint" />
          </mxGeometry>
        </mxCell>
        <mxCell id="MrN5kUkZAUSpkwFro3fQ-61" value="" style="endArrow=none;html=1;rounded=0;fontSize=12;startSize=8;endSize=8;curved=1;" edge="1" parent="1" source="MrN5kUkZAUSpkwFro3fQ-56" target="MrN5kUkZAUSpkwFro3fQ-4">
          <mxGeometry relative="1" as="geometry">
            <mxPoint x="415" y="820" as="sourcePoint" />
            <mxPoint x="445" y="710" as="targetPoint" />
          </mxGeometry>
        </mxCell>
        <mxCell id="MrN5kUkZAUSpkwFro3fQ-62" value="" style="endArrow=none;html=1;rounded=0;fontSize=12;startSize=8;endSize=8;curved=1;" edge="1" parent="1" source="MrN5kUkZAUSpkwFro3fQ-47" target="MrN5kUkZAUSpkwFro3fQ-4">
          <mxGeometry relative="1" as="geometry">
            <mxPoint x="491" y="753" as="sourcePoint" />
            <mxPoint x="463" y="710" as="targetPoint" />
          </mxGeometry>
        </mxCell>
        <mxCell id="MrN5kUkZAUSpkwFro3fQ-63" value="" style="endArrow=none;html=1;rounded=0;fontSize=12;startSize=8;endSize=8;curved=1;" edge="1" parent="1" source="MrN5kUkZAUSpkwFro3fQ-2" target="MrN5kUkZAUSpkwFro3fQ-33">
          <mxGeometry relative="1" as="geometry">
            <mxPoint x="280" y="110" as="sourcePoint" />
            <mxPoint x="350" y="150" as="targetPoint" />
          </mxGeometry>
        </mxCell>
        <mxCell id="MrN5kUkZAUSpkwFro3fQ-64" value="" style="endArrow=none;html=1;rounded=0;fontSize=12;startSize=8;endSize=8;curved=1;" edge="1" parent="1" source="MrN5kUkZAUSpkwFro3fQ-1" target="MrN5kUkZAUSpkwFro3fQ-32">
          <mxGeometry relative="1" as="geometry">
            <mxPoint x="250" y="270" as="sourcePoint" />
            <mxPoint x="410" y="270" as="targetPoint" />
          </mxGeometry>
        </mxCell>
        <mxCell id="MrN5kUkZAUSpkwFro3fQ-65" value="" style="endArrow=none;html=1;rounded=0;fontSize=12;startSize=8;endSize=8;curved=1;" edge="1" parent="1" source="MrN5kUkZAUSpkwFro3fQ-34" target="MrN5kUkZAUSpkwFro3fQ-3">
          <mxGeometry relative="1" as="geometry">
            <mxPoint x="140" y="330" as="sourcePoint" />
            <mxPoint x="300" y="330" as="targetPoint" />
          </mxGeometry>
        </mxCell>
        <mxCell id="MrN5kUkZAUSpkwFro3fQ-66" value="" style="endArrow=none;html=1;rounded=0;fontSize=12;startSize=8;endSize=8;curved=1;" edge="1" parent="1" source="MrN5kUkZAUSpkwFro3fQ-50" target="MrN5kUkZAUSpkwFro3fQ-3">
          <mxGeometry relative="1" as="geometry">
            <mxPoint x="290" y="470" as="sourcePoint" />
            <mxPoint x="450" y="470" as="targetPoint" />
          </mxGeometry>
        </mxCell>
        <mxCell id="MrN5kUkZAUSpkwFro3fQ-67" value="" style="endArrow=none;html=1;rounded=0;fontSize=12;startSize=8;endSize=8;curved=1;" edge="1" parent="1" source="MrN5kUkZAUSpkwFro3fQ-49" target="MrN5kUkZAUSpkwFro3fQ-3">
          <mxGeometry relative="1" as="geometry">
            <mxPoint x="165" y="550" as="sourcePoint" />
            <mxPoint x="210" y="550" as="targetPoint" />
          </mxGeometry>
        </mxCell>
        <mxCell id="MrN5kUkZAUSpkwFro3fQ-68" value="" style="endArrow=none;html=1;rounded=0;fontSize=12;startSize=8;endSize=8;curved=1;" edge="1" parent="1" source="MrN5kUkZAUSpkwFro3fQ-48" target="MrN5kUkZAUSpkwFro3fQ-3">
          <mxGeometry relative="1" as="geometry">
            <mxPoint x="145" y="501" as="sourcePoint" />
            <mxPoint x="213" y="530" as="targetPoint" />
          </mxGeometry>
        </mxCell>
        <mxCell id="MrN5kUkZAUSpkwFro3fQ-69" value="" style="endArrow=none;html=1;rounded=0;fontSize=12;startSize=8;endSize=8;curved=1;" edge="1" parent="1" source="MrN5kUkZAUSpkwFro3fQ-2" target="MrN5kUkZAUSpkwFro3fQ-54">
          <mxGeometry relative="1" as="geometry">
            <mxPoint x="510" y="50" as="sourcePoint" />
            <mxPoint x="670" y="50" as="targetPoint" />
          </mxGeometry>
        </mxCell>
        <mxCell id="MrN5kUkZAUSpkwFro3fQ-70" value="" style="endArrow=none;html=1;rounded=0;fontSize=12;startSize=8;endSize=8;curved=1;" edge="1" parent="1" source="MrN5kUkZAUSpkwFro3fQ-51" target="MrN5kUkZAUSpkwFro3fQ-1">
          <mxGeometry relative="1" as="geometry">
            <mxPoint x="400" y="210" as="sourcePoint" />
            <mxPoint x="550" y="120" as="targetPoint" />
            <Array as="points">
              <mxPoint x="600" y="380" />
            </Array>
          </mxGeometry>
        </mxCell>
        <mxCell id="MrN5kUkZAUSpkwFro3fQ-71" value="" style="endArrow=none;html=1;rounded=0;fontSize=12;startSize=8;endSize=8;curved=1;" edge="1" parent="1" source="MrN5kUkZAUSpkwFro3fQ-53" target="MrN5kUkZAUSpkwFro3fQ-1">
          <mxGeometry relative="1" as="geometry">
            <mxPoint x="414" y="240" as="sourcePoint" />
            <mxPoint x="446" y="390" as="targetPoint" />
            <Array as="points">
              <mxPoint x="501" y="321" />
            </Array>
          </mxGeometry>
        </mxCell>
        <mxCell id="MrN5kUkZAUSpkwFro3fQ-72" value="" style="endArrow=none;html=1;rounded=0;fontSize=12;startSize=8;endSize=8;curved=1;" edge="1" parent="1" source="MrN5kUkZAUSpkwFro3fQ-55" target="MrN5kUkZAUSpkwFro3fQ-1">
          <mxGeometry relative="1" as="geometry">
            <mxPoint x="334" y="249" as="sourcePoint" />
            <mxPoint x="436" y="390" as="targetPoint" />
          </mxGeometry>
        </mxCell>
        <mxCell id="MrN5kUkZAUSpkwFro3fQ-73" value="" style="endArrow=none;html=1;rounded=0;fontSize=12;startSize=8;endSize=8;curved=1;" edge="1" parent="1" source="MrN5kUkZAUSpkwFro3fQ-52" target="MrN5kUkZAUSpkwFro3fQ-1">
          <mxGeometry relative="1" as="geometry">
            <mxPoint x="362" y="354" as="sourcePoint" />
            <mxPoint x="419" y="390" as="targetPoint" />
          </mxGeometry>
        </mxCell>
        <mxCell id="MrN5kUkZAUSpkwFro3fQ-78" value="" style="endArrow=none;html=1;rounded=0;fontSize=12;startSize=8;endSize=8;curved=1;" edge="1" parent="1" source="MrN5kUkZAUSpkwFro3fQ-77" target="MrN5kUkZAUSpkwFro3fQ-1">
          <mxGeometry relative="1" as="geometry">
            <mxPoint x="590" y="410" as="sourcePoint" />
            <mxPoint x="500" y="410" as="targetPoint" />
          </mxGeometry>
        </mxCell>
        <mxCell id="MrN5kUkZAUSpkwFro3fQ-74" value="" style="endArrow=none;html=1;rounded=0;fontSize=12;startSize=8;endSize=8;curved=1;" edge="1" parent="1" source="MrN5kUkZAUSpkwFro3fQ-22" target="MrN5kUkZAUSpkwFro3fQ-5">
          <mxGeometry relative="1" as="geometry">
            <mxPoint x="260" y="800" as="sourcePoint" />
            <mxPoint x="420" y="800" as="targetPoint" />
          </mxGeometry>
        </mxCell>
        <mxCell id="MrN5kUkZAUSpkwFro3fQ-75" value="0,N" style="resizable=0;whiteSpace=wrap;align=right;verticalAlign=bottom;fontFamily=Courier New;fontStyle=1;labelBorderColor=none;html=1;" connectable="0" vertex="1" parent="MrN5kUkZAUSpkwFro3fQ-74">
          <mxGeometry x="1" relative="1" as="geometry">
            <mxPoint x="26" y="-6" as="offset" />
          </mxGeometry>
        </mxCell>
        <mxCell id="MrN5kUkZAUSpkwFro3fQ-76" value="Libelle" style="ellipse;whiteSpace=wrap;html=1;align=center;fillColor=#d5e8d4;strokeColor=#82b366;" vertex="1" parent="1">
          <mxGeometry x="406" y="889" width="60" height="40" as="geometry" />
        </mxCell>
      </root>
    </mxGraphModel>
  </diagram>
</mxfile>
